<?xml version="1.0" encoding="UTF-8"?>
<!DOCTYPE svg PUBLIC "-//W3C//DTD SVG 1.1//EN" "http://www.w3.org/Graphics/SVG/1.1/DTD/svg11.dtd">
<!-- Creator: CorelDRAW -->
<svg xmlns="http://www.w3.org/2000/svg" xml:space="preserve" width="88.0776mm" height="95.9584mm" version="1.1" style="shape-rendering:geometricPrecision; text-rendering:geometricPrecision; image-rendering:optimizeQuality; fill-rule:evenodd; clip-rule:evenodd"
viewBox="0 0 1969.93 2146.19"
 xmlns:xlink="http://www.w3.org/1999/xlink"
 xmlns:xodm="http://www.corel.com/coreldraw/odm/2003">
 <defs>
  <style type="text/css">
   <![CDATA[
    .str1 {stroke:#EEEEEF;stroke-width:11.18;stroke-linecap:round;stroke-linejoin:round;stroke-miterlimit:22.9256}
    .str4 {stroke:#912353;stroke-width:11.18;stroke-linecap:round;stroke-linejoin:round;stroke-miterlimit:22.9256}
    .str2 {stroke:#AF2865;stroke-width:11.18;stroke-linecap:round;stroke-linejoin:round;stroke-miterlimit:22.9256}
    .str0 {stroke:#E0BB55;stroke-width:11.18;stroke-linecap:round;stroke-linejoin:round;stroke-miterlimit:22.9256}
    .str3 {stroke:#F3B0D6;stroke-width:11.18;stroke-linecap:round;stroke-linejoin:round;stroke-miterlimit:22.9256}
    .fil3 {fill:none}
    .fil1 {fill:#EEEEEF}
    .fil0 {fill:#E0BB55}
    .fil2 {fill:#F3B0D6}
   ]]>
  </style>
 </defs>
 <g id="Layer_x0020_1">
  <metadata id="CorelCorpID_0Corel-Layer"/>
  <path class="fil0 str0" d="M1387.48 451.71c180.03,0 325.98,145.95 325.98,325.98 0,180.03 -145.95,325.98 -325.98,325.98 -180.04,0 -325.98,-145.95 -325.98,-325.98 0,-180.04 145.95,-325.98 325.98,-325.98z"/>
  <path class="fil1 str1" d="M627.34 150.34c238.88,0 432.53,193.65 432.53,432.53 0,238.88 -193.65,432.53 -432.53,432.53 -238.88,0 -432.53,-193.65 -432.53,-432.53 0,-238.88 193.65,-432.53 432.53,-432.53z"/>
  <path class="fil2" d="M932.69 956.12c156.39,0 283.17,126.78 283.17,283.17 0,156.4 -126.78,283.18 -283.17,283.18 -156.4,0 -283.18,-126.78 -283.18,-283.18 0,-156.39 126.78,-283.17 283.18,-283.17z"/>
  <path class="fil3 str2" d="M392.63 246.88c635.76,0 1652.12,746.08 1151.14,946.86 -500.98,200.78 -515.38,946.86 -1151.14,946.86 -135.8,0 -266.07,-19.4 -387.03,-54.92l0 -1783.88c120.96,-35.52 251.24,-54.92 387.03,-54.92z"/>
  <path class="fil3 str3" d="M1734.36 5.59c145.31,181.13 229.98,398.06 229.98,631.3 0,633.89 -1017.02,1835.93 -1395.38,1147.76 -132.9,-241.72 -344.62,-376.99 -563.36,-478.29l0 -1300.77"/>
  <polygon class="fil3 str4" points="466.2,1535.45 748.05,1535.45 748.05,1817.3 466.2,1817.3 "/>
  <polygon class="fil3 str4" points="466.2,1535.45 748.05,1535.45 969.42,1253.6 687.56,1253.6 "/>
  <polygon class="fil3 str4" points="969.42,1253.6 748.05,1535.45 748.05,1817.3 969.42,1535.45 "/>
  <g id="_1944306649696">
   <polygon class="fil3 str2" points="792.46,720.4 1150.93,720.4 1150.93,1078.87 792.46,1078.87 "/>
   <polygon class="fil3 str2" points="792.46,720.4 1150.93,720.4 1432.47,361.94 1074,361.94 "/>
   <polygon class="fil3 str2" points="1432.47,361.94 1150.93,720.4 1150.93,1078.87 1432.47,720.4 "/>
  </g>
 </g>
</svg>
