<?xml version="1.0" encoding="UTF-8"?>
<!DOCTYPE svg PUBLIC "-//W3C//DTD SVG 1.1//EN" "http://www.w3.org/Graphics/SVG/1.1/DTD/svg11.dtd">
<!-- Creator: CorelDRAW -->
<svg xmlns="http://www.w3.org/2000/svg" xml:space="preserve" width="5.08mm" height="4.8221mm" version="1.1" style="shape-rendering:geometricPrecision; text-rendering:geometricPrecision; image-rendering:optimizeQuality; fill-rule:evenodd; clip-rule:evenodd"
viewBox="0 0 15.27 14.49"
 xmlns:xlink="http://www.w3.org/1999/xlink"
 xmlns:xodm="http://www.corel.com/coreldraw/odm/2003">
 <defs>
  <style type="text/css">
   <![CDATA[
    .fil0 {fill:#912353}
    .fil1 {fill:#E0BB55;fill-rule:nonzero}
   ]]>
  </style>
 </defs>
 <g id="Layer_x0020_1">
  <metadata id="CorelCorpID_0Corel-Layer"/>
  <path class="fil0" d="M1.82 6.37l0.01 8.12 -1.82 0 -0.01 -9.23 4.93 -5.26 9.99 0 -0.84 0.93c-1.59,1.75 -3.18,3.5 -4.76,5.25l-0.17 0.18 -7.33 0zm3.89 -4.55l-2.55 2.72 5.18 0 2.47 -2.72 -5.1 0z"/>
  <path class="fil1" d="M15.27 0.2l0 1.72 -1.82 2.01 0 -1.74c0.61,-0.67 1.21,-1.32 1.82,-1.99zm0 2.48l0 6.36 -0.16 0.16c-1.76,1.75 -3.68,3.34 -5.43,5.1l-0.16 0.16 -7.16 0 0 -1.82 6.41 0 4.68 -4.37 0 -3.59 1.82 -2.01z"/>
 </g>
</svg>
