<?xml version="1.0" encoding="UTF-8"?>
<!DOCTYPE svg PUBLIC "-//W3C//DTD SVG 1.1//EN" "http://www.w3.org/Graphics/SVG/1.1/DTD/svg11.dtd">
<!-- Creator: CorelDRAW -->
<svg xmlns="http://www.w3.org/2000/svg" xml:space="preserve" width="8.0267mm" height="4.7204mm" version="1.1" style="shape-rendering:geometricPrecision; text-rendering:geometricPrecision; image-rendering:optimizeQuality; fill-rule:evenodd; clip-rule:evenodd"
viewBox="0 0 25.47 14.98"
 xmlns:xlink="http://www.w3.org/1999/xlink"
 xmlns:xodm="http://www.corel.com/coreldraw/odm/2003">
 <defs>
  <style type="text/css">
   <![CDATA[
    .fil3 {fill:#7B2249}
    .fil2 {fill:#E0BB55}
    .fil0 {fill:#F3B0D6}
    .fil1 {fill:#7B2249;fill-rule:nonzero}
   ]]>
  </style>
 </defs>
 <g id="Layer_x0020_1">
  <metadata id="CorelCorpID_0Corel-Layer"/>
  <circle class="fil0" cx="12.32" cy="8.26" r="6.19"/>
  <path class="fil1" d="M12.32 1.78c1.79,0 3.41,0.73 4.58,1.9 1.17,1.17 1.9,2.79 1.9,4.58 0,1.79 -0.73,3.41 -1.9,4.58 -1.17,1.17 -2.79,1.9 -4.58,1.9 -1.79,0 -3.41,-0.73 -4.58,-1.9 -1.17,-1.17 -1.9,-2.79 -1.9,-4.58 0,-1.79 0.73,-3.41 1.9,-4.58 1.17,-1.17 2.79,-1.9 4.58,-1.9zm4.17 2.31c-1.07,-1.07 -2.54,-1.73 -4.17,-1.73 -1.63,0 -3.11,0.66 -4.17,1.73 -1.07,1.07 -1.73,2.54 -1.73,4.17 0,1.63 0.66,3.11 1.73,4.17 1.07,1.07 2.54,1.73 4.17,1.73 1.63,0 3.11,-0.66 4.17,-1.73 1.07,-1.07 1.73,-2.54 1.73,-4.17 0,-1.63 -0.66,-3.11 -1.73,-4.17z"/>
  <polygon class="fil2" points="4.68,10.44 0.29,14.69 6.35,14.69 10.54,10.44 "/>
  <path class="fil1" d="M4.79 10.73l-3.79 3.67 5.23 0 3.62 -3.67 -5.06 0zm-4.7 3.75l4.37 -4.23c0.05,-0.06 0.13,-0.1 0.22,-0.1l5.87 0c0.07,0 0.15,0.03 0.2,0.08 0.11,0.11 0.11,0.29 0,0.41l-4.17 4.23c-0.05,0.06 -0.13,0.1 -0.22,0.1l-6.07 0c-0.07,-0 -0.15,-0.03 -0.21,-0.09 -0.11,-0.11 -0.11,-0.3 0.01,-0.41z"/>
  <polygon class="fil2" points="0.29,11.72 0.29,14.69 6.35,14.69 6.35,11.72 "/>
  <path class="fil1" d="M0.58 12l0 2.4 5.49 0 0 -2.4 -5.49 0zm-0.58 2.68l0 -2.97c0,-0.16 0.13,-0.29 0.29,-0.29l6.07 0c0.16,0 0.29,0.13 0.29,0.29l0 2.97c0,0.16 -0.13,0.29 -0.29,0.29l-6.07 0c-0.16,0 -0.29,-0.13 -0.29,-0.29z"/>
  <polygon class="fil2" points="6.35,11.72 6.35,14.69 10.54,10.44 10.54,7.47 "/>
  <path class="fil1" d="M6.64 11.83l0 2.15 3.61 -3.66 0 -2.15 -3.61 3.66zm-0.58 2.86l0 -2.97c0,-0.07 0.03,-0.15 0.08,-0.2l4.17 -4.23c0.05,-0.06 0.13,-0.1 0.22,-0.1 0.16,0 0.29,0.13 0.29,0.29l0 2.97c-0,0.07 -0.03,0.15 -0.08,0.2l-4.17 4.23c-0.05,0.06 -0.13,0.1 -0.22,0.1 -0.16,0 -0.29,-0.13 -0.29,-0.29z"/>
  <polygon class="fil2" points="4.68,7.47 0.29,11.72 6.35,11.72 10.54,7.47 "/>
  <path class="fil1" d="M4.79 7.76l-3.79 3.67 5.23 0 3.62 -3.67 -5.06 0zm-4.7 3.75l4.37 -4.23c0.05,-0.06 0.13,-0.1 0.22,-0.1l5.87 0c0.07,0 0.15,0.03 0.2,0.08 0.11,0.11 0.11,0.29 0,0.41l-4.17 4.23c-0.05,0.06 -0.13,0.1 -0.22,0.1l-6.07 0c-0.07,-0 -0.15,-0.03 -0.21,-0.09 -0.11,-0.11 -0.11,-0.3 0.01,-0.41z"/>
  <polygon class="fil3" points="19.81,0.58 22.39,5.04 24.97,9.5 19.81,9.5 14.66,9.5 17.24,5.04 "/>
  <path class="fil1" d="M20.06 0.43l5.4 9.36 -11.3 0 5.65 -9.79 0.25 0.43zm2.08 4.75l-2.33 -4.03 -4.65 8.06 9.3 0 -2.33 -4.03z"/>
 </g>
</svg>
