<?xml version="1.0" encoding="UTF-8"?>
<!DOCTYPE svg PUBLIC "-//W3C//DTD SVG 1.1//EN" "http://www.w3.org/Graphics/SVG/1.1/DTD/svg11.dtd">
<!-- Creator: CorelDRAW -->
<svg xmlns="http://www.w3.org/2000/svg" xml:space="preserve" width="5.5267mm" height="5.9846mm" version="1.1" style="shape-rendering:geometricPrecision; text-rendering:geometricPrecision; image-rendering:optimizeQuality; fill-rule:evenodd; clip-rule:evenodd"
viewBox="0 0 10.24 11.09"
 xmlns:xlink="http://www.w3.org/1999/xlink"
 xmlns:xodm="http://www.corel.com/coreldraw/odm/2003">
 <defs>
  <style type="text/css">
   <![CDATA[
    .fil3 {fill:#FEFEFE}
    .fil1 {fill:#7B2249;fill-rule:nonzero}
    .fil2 {fill:url(#id0)}
    .fil0 {fill:url(#id1)}
   ]]>
  </style>
  <linearGradient id="id0" gradientUnits="userSpaceOnUse" x1="4.34" y1="-0.12" x2="5.9" y2="4.64">
   <stop offset="0" style="stop-opacity:1; stop-color:#7B2249"/>
   <stop offset="1" style="stop-opacity:1; stop-color:#912353"/>
  </linearGradient>
  <linearGradient id="id1" gradientUnits="userSpaceOnUse" x1="3.85" y1="5.18" x2="6.39" y2="11.09">
   <stop offset="0" style="stop-opacity:1; stop-color:#E0BB55"/>
   <stop offset="1" style="stop-opacity:1; stop-color:#FFDA75"/>
  </linearGradient>
 </defs>
 <g id="Layer_x0020_1">
  <metadata id="CorelCorpID_0Corel-Layer"/>
  <path class="fil0" d="M1.01 5.35l9.06 0 0 2.78c0,1.53 -1.25,2.78 -2.78,2.78l-7.12 0 0 -4.72c0,-0.46 0.38,-0.84 0.84,-0.84z"/>
  <path class="fil1" d="M1.01 5.18l9.06 0c0.09,0 0.17,0.08 0.17,0.17l0 2.78c0,0.81 -0.33,1.55 -0.87,2.09 -0.53,0.53 -1.27,0.87 -2.09,0.87l-7.12 0c-0.09,0 -0.17,-0.08 -0.17,-0.17l0 -4.72c0,-0.28 0.11,-0.53 0.3,-0.71 0.18,-0.18 0.44,-0.3 0.71,-0.3zm8.89 0.34l-8.89 0c-0.19,0 -0.35,0.08 -0.48,0.2 -0.12,0.12 -0.2,0.29 -0.2,0.48l0 4.56 6.95 0c0.72,0 1.37,-0.29 1.85,-0.77 0.47,-0.47 0.77,-1.13 0.77,-1.85l0 -2.62z"/>
  <path class="fil2" d="M5.12 0.17c1.63,1.38 3.27,2.72 4.88,4.17 -3.24,0.01 -6.4,0.04 -9.75,0 1.61,-1.39 3.13,-2.76 4.88,-4.17z"/>
  <path class="fil1" d="M5.23 0.04l1.33 1.12c1.19,0.99 2.37,1.99 3.55,3.05 0.07,0.06 0.07,0.17 0.01,0.24 -0.03,0.04 -0.08,0.05 -0.12,0.05l-2.63 0.01c-2.34,0.01 -4.69,0.02 -7.12,-0.01 -0.09,-0 -0.17,-0.08 -0.17,-0.17 0,-0.05 0.02,-0.1 0.06,-0.13l1.3 -1.13c1.15,-1.01 2.31,-2.01 3.58,-3.04 0.06,-0.05 0.15,-0.05 0.21,0zm1.11 1.38l-1.22 -1.03c-1.22,1 -2.34,1.97 -3.46,2.94l-0.97 0.84c2.28,0.02 4.48,0.01 6.68,0l2.19 -0.01c-1.06,-0.94 -2.14,-1.85 -3.22,-2.75z"/>
  <rect class="fil3" x="5.23" y="6.68" width="1.94" height="3.71"/>
  <path class="fil1" d="M5.23 6.52l2.11 0 0 4.05 -2.28 0 0 -4.05 0.17 0zm1.78 0.34l-1.61 0 0 3.38 1.61 0 0 -3.38z"/>
  <rect class="fil3" x="2.28" y="7.21" width="1.93" height="1.78"/>
  <path class="fil1" d="M2.28 7.04l2.09 0 0 2.12 -2.26 0 0 -2.12 0.17 0zm1.76 0.34l-1.59 0 0 1.44 1.59 0 0 -1.44z"/>
 </g>
</svg>
