<?xml version="1.0" encoding="UTF-8"?>
<!DOCTYPE svg PUBLIC "-//W3C//DTD SVG 1.1//EN" "http://www.w3.org/Graphics/SVG/1.1/DTD/svg11.dtd">
<!-- Creator: CorelDRAW -->
<svg xmlns="http://www.w3.org/2000/svg" xml:space="preserve" width="4.7606mm" height="6.8671mm" version="1.1" style="shape-rendering:geometricPrecision; text-rendering:geometricPrecision; image-rendering:optimizeQuality; fill-rule:evenodd; clip-rule:evenodd"
viewBox="0 0 8.3 11.97"
 xmlns:xlink="http://www.w3.org/1999/xlink"
 xmlns:xodm="http://www.corel.com/coreldraw/odm/2003">
 <defs>
  <style type="text/css">
   <![CDATA[
    .fil0 {fill:#E0BB55}
    .fil1 {fill:#7B2249;fill-rule:nonzero}
   ]]>
  </style>
 </defs>
 <g id="Layer_x0020_1">
  <metadata id="CorelCorpID_0Corel-Layer"/>
  <polygon class="fil0" points="3.57,8.51 0.16,11.81 4.88,11.81 8.14,8.51 "/>
  <path class="fil1" d="M3.64 8.67l-3.09 2.99 4.26 0 2.95 -2.99 -4.12 0zm-3.59 3.03l3.41 -3.3c0.03,-0.03 0.07,-0.05 0.12,-0.05l4.56 0c0.04,0 0.08,0.02 0.11,0.05 0.06,0.06 0.06,0.16 0,0.22l-3.25 3.3c-0.03,0.03 -0.07,0.06 -0.12,0.06l-4.72 0c-0.04,-0 -0.08,-0.02 -0.11,-0.05 -0.06,-0.06 -0.06,-0.16 0,-0.22z"/>
  <polygon class="fil0" points="0.16,9.5 0.16,11.81 4.88,11.81 4.88,9.5 "/>
  <path class="fil1" d="M0.32 9.66l0 2 4.4 0 0 -2 -4.4 0zm-0.32 2.15l0 -2.31c0,-0.09 0.07,-0.16 0.16,-0.16l4.72 0c0.09,0 0.16,0.07 0.16,0.16l0 2.31c0,0.09 -0.07,0.16 -0.16,0.16l-4.72 0c-0.09,0 -0.16,-0.07 -0.16,-0.16z"/>
  <polygon class="fil0" points="4.88,9.5 4.88,11.81 8.14,8.51 8.14,6.19 "/>
  <path class="fil1" d="M5.04 9.56l0 1.86 2.94 -2.98 0 -1.86 -2.94 2.98zm-0.32 2.25l0 -2.31c0,-0.04 0.02,-0.08 0.05,-0.11l3.25 -3.3c0.03,-0.03 0.07,-0.06 0.12,-0.06 0.09,0 0.16,0.07 0.16,0.16l0 2.31c-0,0.04 -0.02,0.08 -0.05,0.11l-3.25 3.3c-0.03,0.03 -0.07,0.06 -0.12,0.06 -0.09,0 -0.16,-0.07 -0.16,-0.16z"/>
  <polygon class="fil0" points="3.57,6.19 0.16,9.5 4.88,9.5 8.14,6.19 "/>
  <path class="fil1" d="M3.64 6.35l-3.09 2.99 4.26 0 2.95 -2.99 -4.12 0zm-3.59 3.03l3.4 -3.29c0.03,-0.03 0.07,-0.06 0.12,-0.06l4.56 0c0.04,0 0.08,0.02 0.11,0.05 0.06,0.06 0.06,0.16 0,0.22l-3.25 3.3c-0.03,0.03 -0.07,0.06 -0.12,0.06l-4.72 0c-0.04,-0 -0.08,-0.02 -0.11,-0.05 -0.06,-0.06 -0.06,-0.16 0,-0.22z"/>
  <polygon class="fil0" points="3.57,5.47 0.16,8.78 4.88,8.78 8.14,5.47 "/>
  <path class="fil1" d="M3.64 5.63l-3.09 2.99 4.26 0 2.95 -2.99 -4.12 0zm-3.59 3.03l3.41 -3.3c0.03,-0.03 0.07,-0.05 0.12,-0.05l4.56 0c0.04,0 0.08,0.02 0.11,0.05 0.06,0.06 0.06,0.16 0,0.22l-3.25 3.3c-0.03,0.03 -0.07,0.06 -0.12,0.06l-4.72 0c-0.04,-0 -0.08,-0.02 -0.11,-0.05 -0.06,-0.06 -0.06,-0.16 0,-0.22z"/>
  <polygon class="fil0" points="0.16,6.47 0.16,8.78 4.88,8.78 4.88,6.47 "/>
  <path class="fil1" d="M0.32 6.62l0 2 4.4 0 0 -2 -4.4 0zm-0.32 2.16l0 -2.31c0,-0.09 0.07,-0.16 0.16,-0.16l4.72 0c0.09,0 0.16,0.07 0.16,0.16l0 2.31c0,0.09 -0.07,0.16 -0.16,0.16l-4.72 0c-0.09,0 -0.16,-0.07 -0.16,-0.16z"/>
  <polygon class="fil0" points="4.88,6.47 4.88,8.78 8.14,5.47 8.14,3.16 "/>
  <path class="fil1" d="M5.04 6.53l0 1.86 2.94 -2.98 0 -1.86 -2.94 2.98zm-0.32 2.25l0 -2.31c0,-0.04 0.02,-0.08 0.05,-0.11l3.25 -3.3c0.03,-0.03 0.07,-0.06 0.12,-0.06 0.09,0 0.16,0.07 0.16,0.16l0 2.31c-0,0.04 -0.02,0.08 -0.05,0.11l-3.25 3.3c-0.03,0.03 -0.07,0.06 -0.12,0.06 -0.09,0 -0.16,-0.07 -0.16,-0.16z"/>
  <polygon class="fil0" points="3.57,3.16 0.16,6.47 4.88,6.47 8.14,3.16 "/>
  <path class="fil1" d="M3.64 3.32l-3.09 2.99 4.26 0 2.95 -2.99 -4.12 0zm-3.59 3.03l3.4 -3.29c0.03,-0.03 0.07,-0.06 0.12,-0.06l4.56 0c0.04,0 0.08,0.02 0.11,0.05 0.06,0.06 0.06,0.16 0,0.22l-3.25 3.3c-0.03,0.03 -0.07,0.06 -0.12,0.06l-4.72 0c-0.04,-0 -0.08,-0.02 -0.11,-0.05 -0.06,-0.06 -0.06,-0.16 0,-0.22z"/>
  <polygon class="fil0" points="3.57,2.47 0.16,5.78 4.88,5.78 8.14,2.47 "/>
  <path class="fil1" d="M3.64 2.63l-3.09 2.99 4.26 0 2.95 -2.99 -4.12 0zm-3.59 3.03l3.4 -3.29c0.03,-0.03 0.07,-0.06 0.12,-0.06l4.56 0c0.04,0 0.08,0.02 0.11,0.05 0.06,0.06 0.06,0.16 0,0.22l-3.25 3.3c-0.03,0.03 -0.07,0.06 -0.12,0.06l-4.72 0c-0.04,-0 -0.08,-0.02 -0.11,-0.05 -0.06,-0.06 -0.06,-0.16 0,-0.22z"/>
  <polygon class="fil0" points="0.16,3.46 0.16,5.78 4.88,5.78 4.88,3.46 "/>
  <path class="fil1" d="M0.32 3.62l0 2 4.4 0 0 -2 -4.4 0zm-0.32 2.16l0 -2.31c0,-0.09 0.07,-0.16 0.16,-0.16l4.72 0c0.09,0 0.16,0.07 0.16,0.16l0 2.31c0,0.09 -0.07,0.16 -0.16,0.16l-4.72 0c-0.09,0 -0.16,-0.07 -0.16,-0.16z"/>
  <polygon class="fil0" points="4.88,3.46 4.88,5.78 8.14,2.47 8.14,0.16 "/>
  <path class="fil1" d="M5.04 3.53l0 1.86 2.94 -2.98 0 -1.86 -2.94 2.98zm-0.32 2.25l0 -2.31c0,-0.04 0.02,-0.08 0.05,-0.11l3.25 -3.3c0.03,-0.03 0.07,-0.06 0.12,-0.06 0.09,0 0.16,0.07 0.16,0.16l0 2.31c-0,0.04 -0.02,0.08 -0.05,0.11l-3.25 3.3c-0.03,0.03 -0.07,0.06 -0.12,0.06 -0.09,0 -0.16,-0.07 -0.16,-0.16z"/>
  <polygon class="fil0" points="3.57,0.16 0.16,3.46 4.88,3.46 8.14,0.16 "/>
  <path class="fil1" d="M3.64 0.32l-3.09 2.99 4.26 0 2.95 -2.99 -4.12 0zm-3.59 3.03l3.4 -3.29c0.03,-0.03 0.07,-0.06 0.12,-0.06l4.56 0c0.04,0 0.08,0.02 0.11,0.05 0.06,0.06 0.06,0.16 0,0.22l-3.25 3.3c-0.03,0.03 -0.07,0.06 -0.12,0.06l-4.72 0c-0.04,-0 -0.08,-0.02 -0.11,-0.05 -0.06,-0.06 -0.06,-0.16 0,-0.22z"/>
 </g>
</svg>
