<?xml version="1.0" encoding="UTF-8"?>
<!DOCTYPE svg PUBLIC "-//W3C//DTD SVG 1.1//EN" "http://www.w3.org/Graphics/SVG/1.1/DTD/svg11.dtd">
<!-- Creator: CorelDRAW -->
<svg xmlns="http://www.w3.org/2000/svg" xml:space="preserve" width="7.8547mm" height="5.1126mm" version="1.1" style="shape-rendering:geometricPrecision; text-rendering:geometricPrecision; image-rendering:optimizeQuality; fill-rule:evenodd; clip-rule:evenodd"
viewBox="0 0 22.28 14.5"
 xmlns:xlink="http://www.w3.org/1999/xlink"
 xmlns:xodm="http://www.corel.com/coreldraw/odm/2003">
 <defs>
  <style type="text/css">
   <![CDATA[
    .fil2 {fill:#E0BB55}
    .fil1 {fill:#F3B0D6}
    .fil0 {fill:#7B2249;fill-rule:nonzero}
   ]]>
  </style>
 </defs>
 <g id="Layer_x0020_1">
  <metadata id="CorelCorpID_0Corel-Layer"/>
  <path class="fil0" d="M6.37 7.1c0.2,-0.21 0.52,-0.21 0.73,-0.02 0.21,0.2 0.21,0.52 0.02,0.73l-6.22 6.54c-0.2,0.21 -0.52,0.21 -0.73,0.02 -0.21,-0.2 -0.21,-0.52 -0.02,-0.73l6.22 -6.54z"/>
  <circle class="fil1" cx="9.69" cy="4.61" r="4.09"/>
  <path class="fil0" d="M9.69 0c1.27,0 2.42,0.52 3.26,1.35 0.84,0.84 1.35,1.99 1.35,3.26 0,1.27 -0.52,2.42 -1.35,3.26 -0.84,0.84 -1.99,1.35 -3.26,1.35 -1.27,0 -2.42,-0.52 -3.26,-1.35 -0.84,-0.84 -1.35,-1.99 -1.35,-3.26 0,-1.27 0.52,-2.43 1.35,-3.26 0.83,-0.83 1.99,-1.35 3.26,-1.35zm2.53 2.08c-0.65,-0.65 -1.54,-1.05 -2.53,-1.05 -0.99,0 -1.88,0.4 -2.53,1.05 -0.65,0.65 -1.05,1.54 -1.05,2.53 0,0.99 0.4,1.88 1.05,2.53 0.65,0.65 1.54,1.05 2.53,1.05 0.99,0 1.88,-0.4 2.53,-1.05 0.65,-0.65 1.05,-1.54 1.05,-2.53 0,-0.99 -0.4,-1.88 -1.05,-2.53z"/>
  <rect class="fil2" x="12.49" y="9.86" width="4.14" height="4.14"/>
  <path class="fil0" d="M12.75 13.74l3.63 0 0 -3.63 -3.63 0 0 3.63zm3.88 0.52l-4.14 0c-0.14,0 -0.26,-0.12 -0.26,-0.26l0 -4.14c0,-0.14 0.12,-0.26 0.26,-0.26l4.14 0c0.14,0 0.26,0.12 0.26,0.26l0 4.14c0,0.14 -0.12,0.26 -0.26,0.26z"/>
  <path class="fil0" d="M12.68 14.18c-0.1,0.1 -0.26,0.1 -0.37,0 -0.1,-0.1 -0.1,-0.26 0,-0.37l4.14 -4.14c0.1,-0.1 0.26,-0.1 0.37,0 0.1,0.1 0.1,0.26 0,0.37l-4.14 4.14z"/>
  <path class="fil0" d="M12.31 10.04c-0.1,-0.1 -0.1,-0.26 0,-0.37 0.1,-0.1 0.26,-0.1 0.37,0l4.14 4.14c0.1,0.1 0.1,0.26 0,0.37 -0.1,0.1 -0.26,0.1 -0.37,0l-4.14 -4.14z"/>
  <rect class="fil2" x="17.88" y="9.86" width="4.14" height="4.14"/>
  <path class="fil0" d="M18.14 13.74l3.63 0 0 -3.63 -3.63 0 0 3.63zm3.88 0.52l-4.14 0c-0.14,0 -0.26,-0.12 -0.26,-0.26l0 -4.14c0,-0.14 0.12,-0.26 0.26,-0.26l4.14 0c0.14,0 0.26,0.12 0.26,0.26l0 4.14c0,0.14 -0.12,0.26 -0.26,0.26z"/>
  <path class="fil0" d="M18.06 14.18c-0.1,0.1 -0.26,0.1 -0.37,0 -0.1,-0.1 -0.1,-0.26 0,-0.37l4.14 -4.14c0.1,-0.1 0.26,-0.1 0.37,0 0.1,0.1 0.1,0.26 0,0.37l-4.14 4.14z"/>
  <path class="fil0" d="M17.7 10.04c-0.1,-0.1 -0.1,-0.26 0,-0.37 0.1,-0.1 0.26,-0.1 0.37,0l4.14 4.14c0.1,0.1 0.1,0.26 0,0.37 -0.1,0.1 -0.26,0.1 -0.37,0l-4.14 -4.14z"/>
  <rect class="fil2" x="15.06" y="4.88" width="4.14" height="4.14"/>
  <path class="fil0" d="M15.32 8.76l3.63 0 0 -3.63 -3.63 0 0 3.63zm3.88 0.52l-4.14 0c-0.14,0 -0.26,-0.12 -0.26,-0.26l0 -4.14c0,-0.14 0.12,-0.26 0.26,-0.26l4.14 0c0.14,0 0.26,0.12 0.26,0.26l0 4.14c0,0.14 -0.12,0.26 -0.26,0.26z"/>
  <path class="fil0" d="M15.25 9.2c-0.1,0.1 -0.26,0.1 -0.37,0 -0.1,-0.1 -0.1,-0.26 0,-0.37l4.14 -4.14c0.1,-0.1 0.26,-0.1 0.37,0 0.1,0.1 0.1,0.26 0,0.37l-4.14 4.14z"/>
  <path class="fil0" d="M14.88 5.06c-0.1,-0.1 -0.1,-0.26 0,-0.37 0.1,-0.1 0.26,-0.1 0.37,0l4.14 4.14c0.1,0.1 0.1,0.26 0,0.37 -0.1,0.1 -0.26,0.1 -0.37,0l-4.14 -4.14z"/>
 </g>
</svg>
