<?xml version="1.0" encoding="UTF-8"?>
<!DOCTYPE svg PUBLIC "-//W3C//DTD SVG 1.1//EN" "http://www.w3.org/Graphics/SVG/1.1/DTD/svg11.dtd">
<!-- Creator: CorelDRAW -->
<svg xmlns="http://www.w3.org/2000/svg" xml:space="preserve" width="9.351mm" height="6.4396mm" version="1.1" style="shape-rendering:geometricPrecision; text-rendering:geometricPrecision; image-rendering:optimizeQuality; fill-rule:evenodd; clip-rule:evenodd"
viewBox="0 0 28.94 19.93"
 xmlns:xlink="http://www.w3.org/1999/xlink"
 xmlns:xodm="http://www.corel.com/coreldraw/odm/2003">
 <defs>
  <style type="text/css">
   <![CDATA[
    .fil0 {fill:#EEEEEF}
    .fil5 {fill:#7B2249}
    .fil4 {fill:#7B2249}
    .fil6 {fill:#912353}
    .fil3 {fill:#E0BB55}
    .fil2 {fill:white}
    .fil1 {fill:#7B2249;fill-rule:nonzero}
   ]]>
  </style>
 </defs>
 <g id="Layer_x0020_1">
  <metadata id="CorelCorpID_0Corel-Layer"/>
  <rect class="fil0" x="0.62" y="0.37" width="15.7" height="19.28" rx="1.11" ry="1.36"/>
  <path class="fil1" d="M1.73 0.09l13.48 0c0.38,0 0.73,0.16 0.98,0.41 0.25,0.25 0.41,0.6 0.41,0.98l0 17.06c0,0.38 -0.16,0.73 -0.41,0.98 -0.25,0.25 -0.6,0.41 -0.98,0.41l-13.48 0c-0.38,0 -0.73,-0.16 -0.98,-0.41 -0.25,-0.25 -0.41,-0.6 -0.41,-0.98l0 -17.06c0,-0.38 0.16,-0.73 0.41,-0.98 0.25,-0.25 0.6,-0.41 0.98,-0.41zm13.48 0.56l-13.48 0c-0.23,0 -0.43,0.09 -0.58,0.24 -0.15,0.15 -0.24,0.36 -0.24,0.58l0 17.06c0,0.23 0.09,0.44 0.24,0.58 0.15,0.15 0.36,0.24 0.59,0.24l13.48 0c0.23,0 0.43,-0.09 0.58,-0.24 0.15,-0.15 0.24,-0.36 0.24,-0.58l0 -17.06c0,-0.23 -0.09,-0.43 -0.24,-0.58 -0.15,-0.15 -0.36,-0.24 -0.58,-0.24z"/>
  <rect class="fil2" x="4.19" y="11.03" width="3.77" height="6.46" rx="1.89" ry="1.27"/>
  <path class="fil1" d="M6.08 10.75c0.6,0 1.14,0.24 1.53,0.64 0.39,0.39 0.64,0.93 0.64,1.53l0 2.69c0,0.6 -0.24,1.14 -0.64,1.53 -0.39,0.39 -0.94,0.64 -1.53,0.64 -0.6,0 -1.14,-0.24 -1.53,-0.64 -0.39,-0.39 -0.64,-0.94 -0.64,-1.53l0 -2.69c0,-0.6 0.24,-1.14 0.64,-1.53 0.39,-0.39 0.93,-0.64 1.53,-0.64zm1.13 1.03c-0.29,-0.29 -0.69,-0.47 -1.13,-0.47 -0.44,0 -0.84,0.18 -1.13,0.47 -0.29,0.29 -0.47,0.69 -0.47,1.13l0 2.69c0,0.44 0.18,0.84 0.47,1.13 0.29,0.29 0.69,0.47 1.13,0.47 0.44,0 0.84,-0.18 1.13,-0.47 0.29,-0.29 0.47,-0.69 0.47,-1.13l0 -2.69c0,-0.44 -0.18,-0.84 -0.47,-1.13z"/>
  <circle class="fil2" cx="6.08" cy="8.66" r="1.73"/>
  <path class="fil1" d="M6.08 6.65c0.55,0 1.06,0.23 1.42,0.59 0.36,0.36 0.59,0.87 0.59,1.42 0,0.55 -0.23,1.06 -0.59,1.42 -0.36,0.36 -0.87,0.59 -1.42,0.59 -0.56,0 -1.06,-0.23 -1.42,-0.59 -0.36,-0.36 -0.59,-0.87 -0.59,-1.42 0,-0.56 0.23,-1.06 0.59,-1.42 0.36,-0.36 0.87,-0.59 1.42,-0.59zm1.02 0.99c-0.26,-0.26 -0.63,-0.42 -1.02,-0.42 -0.4,0 -0.76,0.16 -1.02,0.42 -0.26,0.26 -0.42,0.62 -0.42,1.02 0,0.4 0.16,0.76 0.42,1.02 0.26,0.26 0.63,0.42 1.03,0.42 0.4,0 0.76,-0.16 1.02,-0.42 0.26,-0.26 0.42,-0.63 0.42,-1.02 0,-0.4 -0.16,-0.76 -0.42,-1.03z"/>
  <rect class="fil3" x="17.32" y="14.66" width="4.93" height="4.93"/>
  <path class="fil1" d="M17.6 19.31l4.36 0 0 -4.36 -4.36 0 0 4.36zm4.64 0.56l-5.21 0 0 -5.49 5.49 0 0 5.49 -0.28 0z"/>
  <polygon class="fil1" points="17.12,19.39 22.05,14.46 22.45,14.86 17.52,19.79 "/>
  <polygon class="fil1" points="17.52,14.46 22.45,19.39 22.05,19.79 17.12,14.86 "/>
  <rect class="fil3" x="23.73" y="14.66" width="4.93" height="4.93"/>
  <path class="fil1" d="M24.01 19.31l4.36 0 0 -4.36 -4.36 0 0 4.36zm4.64 0.56l-5.21 0 0 -5.49 5.49 0 0 5.49 -0.28 0z"/>
  <polygon class="fil1" points="23.53,19.39 28.46,14.46 28.86,14.86 23.93,19.79 "/>
  <polygon class="fil1" points="23.93,14.46 28.86,19.39 28.46,19.79 23.53,14.86 "/>
  <rect class="fil3" x="20.38" y="8.74" width="4.93" height="4.93"/>
  <path class="fil1" d="M20.66 13.39l4.36 0 0 -4.36 -4.36 0 0 4.36zm4.64 0.56l-5.21 0 0 -5.49 5.49 0 0 5.49 -0.28 0z"/>
  <polygon class="fil1" points="20.18,13.47 25.11,8.54 25.5,8.94 20.58,13.87 "/>
  <polygon class="fil1" points="20.58,8.54 25.5,13.47 25.11,13.87 20.18,8.94 "/>
  <rect class="fil4" x="0.77" y="1.55" width="2.05" height="5.32" rx="1.02" ry="0.94"/>
  <path class="fil5" d="M4.03 1.55c0,0 0,0 0,0 0.56,0 1.02,0.46 1.02,1.02 0,1.09 0,2.18 0,3.27 0,0.56 -0.46,1.02 -1.02,1.02 0,0 0,0 -0,0 -0.56,0 -1.02,-0.46 -1.02,-1.02 0,-1.09 0,-2.18 0,-3.27 0,-0.56 0.46,-1.02 1.02,-1.02z"/>
  <path class="fil5" d="M6.27 1.55c0,0 0,0 0,0 0.56,0 1.02,0.46 1.02,1.02 0,1.09 0,2.18 0,3.27 0,0.56 -0.46,1.02 -1.02,1.02 0,0 0,0 -0,0 -0.56,0 -1.02,-0.46 -1.02,-1.02 0,-1.09 0,-2.18 0,-3.27 0,-0.56 0.46,-1.02 1.02,-1.02z"/>
  <path class="fil5" d="M8.51 1.55c0,0 0,0 0,0 0.56,0 1.02,0.46 1.02,1.02 0,1.09 0,2.18 0,3.27 0,0.56 -0.46,1.02 -1.02,1.02 0,0 0,0 -0,0 -0.56,0 -1.02,-0.46 -1.02,-1.02 0,-1.09 0,-2.18 0,-3.27 0,-0.56 0.46,-1.02 1.02,-1.02z"/>
  <path class="fil5" d="M10.75 1.55c0,0 0,0 0,0 0.56,0 1.02,0.46 1.02,1.02 0,1.09 0,2.18 0,3.27 0,0.56 -0.46,1.02 -1.02,1.02 0,0 0,0 -0,0 -0.56,0 -1.02,-0.46 -1.02,-1.02 0,-1.09 0,-2.18 0,-3.27 0,-0.56 0.46,-1.02 1.02,-1.02z"/>
  <path class="fil5" d="M12.98 1.55c0,0 0,0 0,0 0.56,0 1.02,0.46 1.02,1.02 0,1.09 0,2.18 0,3.27 0,0.56 -0.46,1.02 -1.02,1.02 0,0 0,0 -0,0 -0.56,0 -1.02,-0.46 -1.02,-1.02 0,-1.09 0,-2.18 0,-3.27 0,-0.56 0.46,-1.02 1.02,-1.02z"/>
  <rect class="fil4" x="14.2" y="1.55" width="2.05" height="5.32" rx="1.02" ry="0.94"/>
  <rect class="fil3" x="0.28" y="0.28" width="16.45" height="2.83" rx="1.88" ry="1.42"/>
  <path class="fil1" d="M1.7 2.83l13.62 0c0.31,0 0.6,-0.13 0.8,-0.33 0.21,-0.21 0.33,-0.49 0.33,-0.8 0,-0.31 -0.13,-0.6 -0.33,-0.8 -0.21,-0.21 -0.49,-0.33 -0.8,-0.33l-13.62 0c-0.31,0 -0.6,0.13 -0.8,0.33 -0.21,0.21 -0.33,0.49 -0.33,0.8 0,0.31 0.13,0.6 0.33,0.8 0.21,0.21 0.49,0.33 0.8,0.33zm13.62 0.56l-13.62 0c-0.47,0 -0.89,-0.19 -1.2,-0.5 -0.31,-0.31 -0.5,-0.73 -0.5,-1.2 0,-0.47 0.19,-0.89 0.5,-1.2 0.31,-0.31 0.73,-0.5 1.2,-0.5l13.62 0c0.47,0 0.89,0.19 1.2,0.5 0.31,0.31 0.5,0.73 0.5,1.2 0,0.47 -0.19,0.89 -0.5,1.2 -0.31,0.31 -0.73,0.5 -1.2,0.5z"/>
  <path class="fil6" d="M0.62 14l15.7 0 0 4.7c0,0.52 -0.5,0.95 -1.11,0.95l-13.48 0c-0.61,0 -1.11,-0.43 -1.11,-0.95l0 -4.7z"/>
  <path class="fil1" d="M0.62 13.72l15.98 0 0 4.98c0,0.35 -0.16,0.66 -0.42,0.88 -0.25,0.21 -0.59,0.35 -0.97,0.35l-13.48 0c-0.37,0 -0.72,-0.13 -0.96,-0.35 -0.26,-0.22 -0.43,-0.54 -0.43,-0.88l0 -4.98 0.28 0zm15.42 0.56l-15.14 0 0 4.42c0,0.17 0.09,0.34 0.23,0.45 0.15,0.13 0.36,0.21 0.6,0.21l13.48 0c0.24,0 0.45,-0.08 0.6,-0.21 0.14,-0.12 0.23,-0.28 0.23,-0.45l0 -4.42z"/>
 </g>
</svg>
